<?xml version="1.0" encoding="UTF-8"?>
<svg id="Capa_2" data-name="Capa 2" xmlns="http://www.w3.org/2000/svg" viewBox="0 0 102.76 145.96">
  <defs>
    <style>
      .cls-1 {
        fill: #ed6b1f;
      }
    </style>
  </defs>
  <g id="Capa_1-2" data-name="Capa 1">
    <g>
      <path class="cls-1" d="M19.88,140.16c-.72-.57-1.82-.93-3.3-1.1-.77-.09-1.31-.23-1.64-.42-.33-.19-.49-.45-.49-.79s.19-.64.57-.84c.38-.21.88-.31,1.52-.31,1.02,0,1.96.29,2.81.88l1.2-1.79c-.55-.39-1.18-.7-1.9-.92-.73-.21-1.46-.32-2.22-.32-.88,0-1.66.14-2.34.42-.67.28-1.2.67-1.57,1.18-.37.51-.56,1.1-.56,1.76,0,.99.34,1.74,1.04,2.27.69.53,1.77.88,3.26,1.05.76.08,1.32.22,1.68.42.35.19.53.47.53.82,0,.37-.19.67-.57.89-.38.22-.89.33-1.53.33-1.29,0-2.42-.38-3.38-1.14l-1.33,1.85c.61.49,1.32.87,2.14,1.14.83.27,1.69.4,2.58.4s1.7-.14,2.4-.43c.69-.28,1.23-.69,1.62-1.21.38-.52.57-1.13.57-1.81,0-.99-.36-1.76-1.09-2.33Z"/>
      <path class="cls-1" d="M25.08,143.54v-2.35h5.53v-2.05h-5.53v-2.21h5.84v-2.13h-8.31v10.89h8.48v-2.15h-6.01Z"/>
      <path class="cls-1" d="M39.73,141.88c.79-.25,1.4-.67,1.83-1.26s.65-1.3.65-2.13c0-.73-.16-1.37-.49-1.93-.32-.56-.78-1-1.37-1.3-.59-.31-1.28-.46-2.07-.46h-5.31v10.89h2.56v-3.59h1.48l2.77,3.59h3.03l-3.08-3.81ZM39.25,139.65c-.29.26-.71.39-1.26.39h-2.48v-3.06h2.48c.54,0,.95.13,1.25.4.3.27.44.65.44,1.14s-.14.86-.43,1.13Z"/>
      <path class="cls-1" d="M51.59,134.8l-1.45,3.7-1.57,4.24-1.54-4.24-1.46-3.7h-2.82l4.48,10.89h2.7l4.48-10.89h-2.82Z"/>
      <path class="cls-1" d="M55.52,134.8v10.89h2.55v-10.89h-2.55Z"/>
      <path class="cls-1" d="M68.45,142.58c-.35.35-.77.62-1.24.81-.48.19-.98.28-1.5.28-.65,0-1.23-.14-1.73-.43-.51-.28-.9-.69-1.17-1.2-.28-.52-.41-1.12-.41-1.79s.13-1.28.41-1.8c.27-.51.66-.92,1.17-1.2.5-.29,1.08-.43,1.73-.43.98,0,1.81.33,2.51,1l1.57-1.58c-1.15-1.13-2.53-1.69-4.14-1.69-1.13,0-2.14.23-3.02.71-.88.47-1.57,1.14-2.06,2-.5.87-.74,1.86-.74,2.99s.24,2.11.72,2.97c.48.86,1.17,1.53,2.06,2.01.88.47,1.91.71,3.09.71,1.66,0,3.07-.56,4.25-1.69l-1.5-1.67Z"/>
      <path class="cls-1" d="M71.41,134.8v10.89h2.55v-10.89h-2.55Z"/>
      <path class="cls-1" d="M86.73,137.24c-.48-.86-1.16-1.53-2.05-2-.89-.47-1.92-.71-3.09-.71s-2.2.24-3.09.71c-.89.47-1.57,1.14-2.06,2-.48.86-.72,1.86-.72,3.01s.24,2.14.72,3c.49.86,1.17,1.53,2.06,2,.89.47,1.92.71,3.09.71s2.2-.24,3.09-.71c.89-.47,1.57-1.14,2.05-2,.49-.86.73-1.86.73-3s-.24-2.15-.73-3.01ZM84.49,142.05c-.27.52-.66.92-1.17,1.21-.5.28-1.08.43-1.73.43s-1.23-.15-1.73-.43c-.5-.29-.88-.69-1.16-1.21-.27-.52-.41-1.12-.41-1.8s.14-1.29.41-1.81c.28-.52.66-.92,1.16-1.21.5-.28,1.08-.43,1.73-.43s1.23.15,1.73.43c.51.29.9.69,1.17,1.21.28.52.41,1.12.41,1.81s-.13,1.28-.41,1.8Z"/>
    </g>
    <g>
      <path class="cls-1" d="M34.41,36.38l2.11,5.63c-3.9,4.62-4.36,7.59,1,11.19,3.94,2.66,5.84-2.52,8.61-2.09l5.24,2.17c-.17,6.29,2.36,8.15,8.52,7.01,3.63-.68,2.53-6.58,3.33-7.15,2.68-.26,4.41-2.98,6.98-1.51,1.51.86,2.45,2.95,4.88,2.57,1.18-.19,4.97-3.85,5.44-4.97,1.49-3.51-3.34-5.23-2.65-8.04.09-.36,1.83-4.67,2.05-4.82,1.59-1.07,6.41.72,7.44-3.75,2.15-9.42-5.54-6.62-7.4-8.48l-2.2-5.51c3.15-4.25,4.87-6.78-.1-10.48-4.17-3.09-5.26-.02-9.01,1.73l-5.49-2.52c-.64-2.97-.03-6.45-3.84-7.08-7.09-1.19-7.33,1.47-8.56,7.48l-5.6,2.15c-3.93-3.8-7.28-4.4-10.64.44-3.26,4.69,2.19,6.81,1.95,8.48l-2.3,5.49c-5.91.64-8.31,1.9-7.26,8.38.63,3.86,4.57,2.81,7.5,3.68ZM64.35,22.82c9.03,8.42-2.82,24.05-13.73,15.64-11.05-8.52,3.04-25.62,13.73-15.64Z"/>
      <path class="cls-1" d="M94.06,72.6c1.27-1.47,2.57-2.9,3.89-4.28,3.07-5.37-.41-11.7-6.79-10.64-1.17.2-2.73,1.07-3.64,1.85-1.74,1.51-10.47,11.25-11.53,13.03-.14.25-.26.5-.36.77h-.01c-3.42,2.35-5.96,5.9-7,10.04-1.87.87-3.95,1.35-5.97,1.51-2.42.2-17.89,1.2-13.97-4.14,3.18-4.37,23.33,4.06,21.29-9.22-.54-3.49-3.55-4.94-6.77-5.23-6.38-.61-13.89.71-20.22.02-2.54-.29-5.08-1.82-7.7-2.13-17.59-2.08-22.91,11.17-34.69,20.53-.12.1-.23.22-.32.36l-.07.12c-.34.57-.25,1.29.22,1.76l19.5,19.09c.69.67,1.78.69,2.49.04l4.78-4.36c.33-.3.76-.48,1.21-.51,10.99-.58,22.88.9,33.7.05,4.07-.32,6.81-1.32,9.45-3.27,3.16,4.22,8.2,6.96,13.87,6.96,9.56,0,17.34-7.78,17.34-17.33,0-6.42-3.51-12.03-8.7-15.02ZM85.42,101.95c-4.76,0-8.98-2.33-11.58-5.91-1.73-2.37-2.75-5.28-2.75-8.42,0-7.91,6.43-14.34,14.33-14.34,2.4,0,4.65.59,6.64,1.64h.01c4.57,2.4,7.69,7.19,7.69,12.7,0,7.9-6.43,14.33-14.34,14.33Z"/>
      <path class="cls-1" d="M94.02,84.03h-4.53c-.27,0-.48-.21-.48-.48v-4.53c0-.12-.04-.22-.11-.3-.09-.11-.22-.18-.37-.18h-6.21c-.27,0-.48.21-.48.48v4.53c0,.27-.22.48-.48.48h-4.54c-.26,0-.48.22-.48.48v6.21c0,.26.22.48.48.48h4.54c.26,0,.48.21.48.48v4.54c0,.26.21.48.48.48h6.21c.26,0,.48-.22.48-.48v-4.54c0-.27.21-.48.48-.48h4.53c.27,0,.48-.22.48-.48v-6.21c0-.26-.21-.48-.48-.48Z"/>
    </g>
    <g>
      <path class="cls-1" d="M24.69,131.19c-.89-.48-1.57-1.15-2.05-2.01-.48-.86-.72-1.85-.72-2.97s.25-2.11.74-2.98,1.18-1.54,2.06-2.01c.88-.47,1.89-.71,3.02-.71,1.61,0,2.99.57,4.14,1.7l-1.57,1.57c-.7-.66-1.53-1-2.51-1-.65,0-1.23.14-1.74.43-.5.29-.89.69-1.17,1.21-.27.52-.41,1.12-.41,1.79s.14,1.27.41,1.79.66.92,1.17,1.21c.5.29,1.08.43,1.74.43.52,0,1.02-.09,1.49-.28.48-.19.89-.46,1.25-.81l1.49,1.67c-1.17,1.13-2.59,1.7-4.25,1.7-1.17,0-2.2-.24-3.09-.72Z"/>
      <path class="cls-1" d="M37.52,128.06h-1.48v3.6h-2.55v-10.9h5.31c.79,0,1.48.15,2.07.46s1.05.74,1.37,1.3.48,1.2.48,1.93c0,.83-.22,1.54-.65,2.13s-1.04,1.01-1.83,1.26l3.08,3.81h-3.04l-2.77-3.6ZM39.76,123.35c-.3-.27-.71-.4-1.25-.4h-2.47v3.07h2.47c.55,0,.97-.13,1.26-.4.29-.26.44-.64.44-1.13s-.15-.87-.44-1.14Z"/>
      <path class="cls-1" d="M47.24,129.51h6.01v2.15h-8.48v-10.9h8.31v2.13h-5.84v2.21h5.53v2.05h-5.53v2.35Z"/>
      <path class="cls-1" d="M63.55,131.66l-.81-1.96h-5.37l-.81,1.96h-2.72l4.89-10.9h2.73l4.86,10.9h-2.76ZM60.08,123.21l-1.79,4.3h3.55l-1.76-4.3Z"/>
      <path class="cls-1" d="M71.41,128.06h-1.48v3.6h-2.55v-10.9h5.31c.79,0,1.48.15,2.07.46s1.05.74,1.37,1.3.48,1.2.48,1.93c0,.83-.22,1.54-.65,2.13s-1.04,1.01-1.83,1.26l3.08,3.81h-3.04l-2.77-3.6ZM73.65,123.35c-.3-.27-.71-.4-1.25-.4h-2.48v3.07h2.48c.55,0,.97-.13,1.26-.4s.44-.64.44-1.13-.15-.87-.44-1.14Z"/>
    </g>
  </g>
</svg>