<?xml version="1.0" encoding="UTF-8"?>
<svg id="Capa_2" data-name="Capa 2" xmlns="http://www.w3.org/2000/svg" viewBox="0 0 113.83 145.84">
  <defs>
    <style>
      .cls-1, .cls-2 {
        fill: #fff;
      }

      .cls-3 {
        letter-spacing: 0em;
      }

      .cls-4 {
        letter-spacing: 0em;
      }

      .cls-5 {
        letter-spacing: -.06em;
      }

      .cls-2 {
        font-family: Nexa-Heavy, Nexa;
        font-size: 15.22px;
        font-weight: 800;
      }
    </style>
  </defs>
  <g id="Capa_1-2" data-name="Capa 1">
    <path class="cls-1" d="M67.45,9.33s-.01-.02-.01-.03c-.15-1.26-.53-2.45-1.09-3.54-1.75-3.42-5.32-5.76-9.43-5.76s-7.68,2.34-9.43,5.76c-.56,1.09-.94,2.28-1.09,3.54,0,.01,0,.02-.01.03-.04.41-.07.84-.07,1.27,0,1.98.55,3.84,1.5,5.43h18.2c.95-1.59,1.5-3.45,1.5-5.43,0-.43-.03-.86-.07-1.27ZM56.92,12.61c-2.03,0-3.73-1.39-4.19-3.28,0,0,0-.02,0-.03-.08-.32-.12-.66-.12-1.01,0-.94.3-1.82.82-2.53.78-1.08,2.06-1.79,3.5-1.79s2.72.71,3.5,1.79c.52.71.82,1.59.82,2.53,0,.35-.04.69-.12,1.01,0,.01,0,.02-.01.03-.46,1.89-2.16,3.28-4.19,3.28Z"/>
    <g>
      <path class="cls-1" d="M7.61,134.68v10.89h2.55v-10.89h-2.55Z"/>
      <path class="cls-1" d="M19.73,134.68v3.86l.03,2.91-4.93-6.77h-2.29v10.89h2.54v-3.8l-.03-2.94,4.93,6.74h2.29v-10.89h-2.54Z"/>
      <path class="cls-1" d="M32.22,134.68l-1.45,3.7-1.57,4.24-1.54-4.24-1.47-3.7h-2.82l4.49,10.89h2.69l4.48-10.89h-2.81Z"/>
      <path class="cls-1" d="M38.61,143.42v-2.35h5.53v-2.05h-5.53v-2.21h5.84v-2.13h-8.31v10.89h8.48v-2.15h-6.01Z"/>
      <path class="cls-1" d="M53.7,134.68v3.86l.03,2.91-4.94-6.77h-2.28v10.89h2.53v-3.8l-.03-2.94,4.94,6.74h2.29v-10.89h-2.54Z"/>
      <path class="cls-1" d="M57.67,134.68v2.22h3.31v8.67h2.56v-8.67h3.33v-2.22h-9.2Z"/>
      <path class="cls-1" d="M73.61,134.68h-2.73l-4.88,10.89h2.72l.81-1.96h5.37l.81,1.96h2.75l-4.85-10.89ZM70.45,141.42l1.79-4.3,1.76,4.3h-3.55Z"/>
      <path class="cls-1" d="M86.29,141.76c.79-.25,1.4-.67,1.83-1.26s.65-1.3.65-2.13c0-.73-.16-1.37-.48-1.93-.32-.56-.78-1-1.37-1.3-.59-.31-1.28-.46-2.07-.46h-5.31v10.89h2.55v-3.59h1.48l2.77,3.59h3.04l-3.09-3.81ZM85.81,139.53c-.29.26-.71.39-1.26.39h-2.47v-3.06h2.47c.54,0,.96.13,1.25.4.3.27.45.65.45,1.14s-.15.86-.44,1.13Z"/>
      <path class="cls-1" d="M90.81,134.68v10.89h2.55v-10.89h-2.55Z"/>
      <path class="cls-1" d="M106.13,137.12c-.48-.86-1.16-1.53-2.05-2-.89-.47-1.92-.71-3.09-.71s-2.2.24-3.09.71c-.89.47-1.57,1.14-2.06,2-.48.86-.72,1.86-.72,3.01s.24,2.14.72,3c.49.86,1.17,1.53,2.06,2,.89.47,1.92.71,3.09.71s2.2-.24,3.09-.71c.89-.47,1.57-1.14,2.05-2,.49-.86.73-1.86.73-3s-.24-2.15-.73-3.01ZM103.89,141.93c-.27.52-.66.92-1.16,1.21-.51.28-1.09.43-1.74.43s-1.23-.15-1.73-.43c-.5-.29-.88-.69-1.16-1.21-.27-.52-.41-1.12-.41-1.8s.14-1.29.41-1.81c.28-.52.66-.92,1.16-1.21.5-.28,1.08-.43,1.73-.43s1.23.15,1.74.43c.5.29.89.69,1.16,1.21.28.52.42,1.12.42,1.81s-.14,1.28-.42,1.8Z"/>
    </g>
    <path class="cls-1" d="M89.51,5.76h-29.09c.52.71.82,1.59.82,2.53,0,.35-.04.69-.12,1.01,0,.01,0,.02-.01.03-.46,1.89-2.16,3.28-4.19,3.28s-3.73-1.39-4.19-3.28c0,0,0-.02,0-.03-.08-.32-.12-.66-.12-1.01,0-.94.3-1.82.82-2.53h-29.09c-2.52,0-4.56,2.04-4.56,4.55v87.07c0,2.51,2.04,4.55,4.56,4.55h65.18c2.52,0,4.56-2.04,4.56-4.55V10.31c0-2.51-2.04-4.55-4.56-4.55ZM90.44,95.7c0,1.51-1.22,2.73-2.73,2.73H26.13c-1.51,0-2.73-1.22-2.73-2.73V12.05c0-1.5,1.22-2.72,2.73-2.72h8.21c.43,0,.79.35.79.78v3.84c0,1.15.93,2.08,2.08,2.08h39.42c1.15,0,2.09-.93,2.09-2.08v-3.84c0-.43.35-.78.78-.78h8.21c1.51,0,2.73,1.22,2.73,2.72v83.65Z"/>
    <g>
      <path class="cls-1" d="M52.72,9.3s0,.02,0,.03h-17.6v-.03h17.59Z"/>
      <path class="cls-1" d="M78.72,9.3v.03h-17.61s.01-.02.01-.03h17.6Z"/>
    </g>
    <g>
      <path class="cls-1" d="M84.46,34.25h-14.37c-.25,0-.45.2-.45.45v34.14c0,.25-.2.45-.45.45h-4.05c-.25,0-.45-.2-.45-.45v-16.77c0-.25-.2-.45-.45-.45h-14.37c-.25,0-.45.2-.45.45v16.77c0,.25-.2.45-.45.45h-4.3c-.25,0-.45-.2-.45-.45v-10.15c0-.25-.2-.45-.45-.45h-14.37c-.25,0-.45.2-.45.45v14.3c0,.25.2.45.45.45h55.08c.25,0,.45-.2.45-.45v-3.37h0v-34.92c0-.25-.2-.45-.45-.45Z"/>
      <path class="cls-1" d="M64.41,34.25h-13.12c-.28,0-.42.34-.22.53l3.87,3.9c.29.29.29.76,0,1.04-4.87,4.78-15.03,9.56-21.17,12.19-.56.24-.28,1.07.31.94,14.92-3.37,22.9-7.65,25.18-9,.29-.17.67-.13.91.12l4.02,4.06c.2.2.53.06.53-.22v-13.25c0-.17-.14-.31-.31-.31Z"/>
    </g>
    <text class="cls-2" transform="translate(0 131.84)"><tspan x="0" y="0">E</tspan><tspan class="cls-3" x="10.14" y="0">S</tspan><tspan class="cls-5" x="20.1" y="0">T</tspan><tspan x="28.59" y="0">ADI</tspan><tspan class="cls-3" x="56.96" y="0">S</tspan><tspan x="66.91" y="0">TIC</tspan><tspan class="cls-4" x="91.93" y="0">A</tspan><tspan x="103.8" y="0">S</tspan></text>
  </g>
</svg>