<?xml version="1.0" encoding="UTF-8"?>
<svg id="Capa_2" data-name="Capa 2" xmlns="http://www.w3.org/2000/svg" viewBox="0 0 114.76 146.08">
  <defs>
    <style>
      .cls-1 {
        fill: #ed6b1f;
      }
    </style>
  </defs>
  <g id="Capa_1-2" data-name="Capa 1">
    <path class="cls-1" d="M99.9,68.44c-7.95,8.28-15.04,18.57-23.02,26.66-3.94,4-7.05,5.83-12.83,6.29-10.82.85-22.72-.63-33.7-.05-.45.02-.88.21-1.21.51l-4.78,4.36c-.71.65-1.8.63-2.48-.04L2.37,87.06c-.47-.46-.56-1.19-.22-1.75l.07-.12c.08-.14.19-.26.32-.36,11.78-9.36,17.09-22.6,34.68-20.53,2.62.31,5.16,1.85,7.7,2.13,6.33.7,13.84-.63,20.22-.02,3.21.29,6.23,1.74,6.77,5.24,2.04,13.28-18.11,4.85-21.29,9.21-3.92,5.34,11.55,4.34,13.98,4.14,4.78-.37,9.88-2.58,11.83-7.28.68-1.63.63-3.55,1.51-5.04,1.06-1.79,9.78-11.52,11.53-13.03.9-.78,2.47-1.65,3.63-1.85,6.38-1.06,9.86,5.26,6.8,10.64Z"/>
    <g>
      <path class="cls-1" d="M2.47,129.66v-2.35h5.53v-2.05H2.47v-2.21h5.84v-2.13H0v10.89h8.48v-2.15H2.47Z"/>
      <path class="cls-1" d="M17.9,126.28c-.73-.57-1.83-.93-3.3-1.1-.77-.09-1.31-.23-1.64-.42-.33-.19-.49-.45-.49-.79s.19-.64.57-.84c.37-.21.88-.31,1.51-.31,1.03,0,1.97.29,2.82.88l1.2-1.79c-.55-.39-1.19-.7-1.91-.92-.72-.21-1.46-.32-2.22-.32-.88,0-1.66.14-2.33.42-.68.28-1.2.67-1.57,1.18-.38.51-.56,1.1-.56,1.76,0,.99.34,1.74,1.03,2.27.69.53,1.78.88,3.26,1.05.77.08,1.33.22,1.68.42.36.19.53.47.53.82,0,.37-.19.67-.56.89-.38.22-.89.33-1.54.33-1.28,0-2.41-.38-3.38-1.14l-1.32,1.85c.6.49,1.32.87,2.14,1.14.83.27,1.69.4,2.58.4s1.7-.14,2.4-.43c.69-.28,1.23-.69,1.61-1.21.39-.52.58-1.13.58-1.81,0-.99-.36-1.76-1.09-2.33Z"/>
      <path class="cls-1" d="M19.61,120.92v2.22h3.32v8.67h2.55v-8.67h3.33v-2.22h-9.2Z"/>
      <path class="cls-1" d="M35.55,120.92h-2.72l-4.89,10.89h2.73l.8-1.96h5.38l.8,1.96h2.76l-4.86-10.89ZM32.39,127.66l1.79-4.3,1.76,4.3h-3.55Z"/>
      <path class="cls-1" d="M50.86,123.49c-.46-.82-1.11-1.46-1.96-1.9-.84-.45-1.83-.67-2.95-.67h-4.47v10.89h4.47c1.12,0,2.11-.22,2.95-.67.85-.44,1.5-1.08,1.96-1.9.47-.83.7-1.79.7-2.87s-.23-2.05-.7-2.88ZM48.16,128.72c-.56.58-1.29.87-2.21.87h-1.91v-6.45h1.91c.6,0,1.14.13,1.6.4.46.26.82.64,1.07,1.12.26.48.38,1.05.38,1.71,0,.98-.28,1.76-.84,2.35Z"/>
      <path class="cls-1" d="M53.3,120.92v10.89h2.55v-10.89h-2.55ZM54.54,117.69l-1.15,2.25h2.15l1.74-2.25h-2.74Z"/>
      <path class="cls-1" d="M65.77,126.28c-.73-.57-1.83-.93-3.3-1.1-.77-.09-1.32-.23-1.64-.42-.33-.19-.49-.45-.49-.79s.18-.64.56-.84c.38-.21.89-.31,1.52-.31,1.03,0,1.97.29,2.82.88l1.2-1.79c-.55-.39-1.19-.7-1.91-.92-.72-.21-1.46-.32-2.22-.32-.88,0-1.66.14-2.33.42-.68.28-1.2.67-1.57,1.18-.38.51-.57,1.1-.57,1.76,0,.99.35,1.74,1.04,2.27.69.53,1.78.88,3.26,1.05.77.08,1.33.22,1.68.42.36.19.53.47.53.82,0,.37-.19.67-.57.89-.38.22-.89.33-1.53.33-1.29,0-2.41-.38-3.38-1.14l-1.32,1.85c.6.49,1.31.87,2.14,1.14.82.27,1.68.4,2.58.4s1.7-.14,2.39-.43c.7-.28,1.24-.69,1.62-1.21.39-.52.58-1.13.58-1.81,0-.99-.37-1.76-1.09-2.33Z"/>
      <path class="cls-1" d="M67.48,120.92v2.22h3.32v8.67h2.55v-8.67h3.33v-2.22h-9.2Z"/>
      <path class="cls-1" d="M78.1,120.92v10.89h2.55v-10.89h-2.55Z"/>
      <path class="cls-1" d="M91.03,128.7c-.35.35-.77.62-1.24.81-.48.19-.98.28-1.5.28-.65,0-1.23-.14-1.73-.43-.51-.28-.9-.69-1.17-1.2-.28-.52-.41-1.12-.41-1.79s.13-1.28.41-1.8c.27-.51.66-.92,1.17-1.2.5-.29,1.08-.43,1.73-.43.98,0,1.81.33,2.51,1l1.57-1.58c-1.15-1.13-2.53-1.69-4.14-1.69-1.13,0-2.14.23-3.02.71-.88.47-1.57,1.14-2.06,2-.5.87-.74,1.86-.74,2.99s.24,2.11.72,2.97c.48.86,1.17,1.53,2.06,2.01.88.47,1.91.71,3.09.71,1.66,0,3.07-.56,4.25-1.69l-1.5-1.67Z"/>
      <path class="cls-1" d="M100.31,120.92h-2.72l-4.89,10.89h2.72l.81-1.96h5.37l.81,1.96h2.76l-4.86-10.89ZM97.15,127.66l1.79-4.3,1.76,4.3h-3.55Z"/>
      <path class="cls-1" d="M113.67,126.28c-.73-.57-1.83-.93-3.3-1.1-.77-.09-1.32-.23-1.65-.42-.32-.19-.49-.45-.49-.79s.19-.64.57-.84c.38-.21.89-.31,1.52-.31,1.03,0,1.97.29,2.82.88l1.2-1.79c-.55-.39-1.19-.7-1.91-.92-.72-.21-1.46-.32-2.22-.32-.88,0-1.66.14-2.33.42-.68.28-1.2.67-1.58,1.18-.37.51-.56,1.1-.56,1.76,0,.99.35,1.74,1.04,2.27.69.53,1.77.88,3.26,1.05.77.08,1.33.22,1.68.42.35.19.53.47.53.82,0,.37-.19.67-.57.89-.38.22-.89.33-1.53.33-1.29,0-2.41-.38-3.38-1.14l-1.32,1.85c.6.49,1.31.87,2.14,1.14.82.27,1.68.4,2.57.4s1.71-.14,2.4-.43c.7-.28,1.24-.69,1.62-1.21s.58-1.13.58-1.81c0-.99-.37-1.76-1.09-2.33Z"/>
      <path class="cls-1" d="M22.17,140.28c-.72-.57-1.82-.93-3.3-1.1-.76-.09-1.31-.23-1.64-.42s-.49-.45-.49-.79.19-.64.57-.84c.38-.21.88-.31,1.52-.31,1.02,0,1.96.29,2.81.88l1.2-1.79c-.55-.39-1.18-.7-1.9-.92-.72-.21-1.46-.32-2.22-.32-.88,0-1.66.14-2.34.42-.67.28-1.2.67-1.57,1.18-.37.51-.56,1.1-.56,1.76,0,.99.34,1.74,1.04,2.27.69.53,1.77.88,3.26,1.05.76.08,1.33.22,1.68.42.35.19.53.47.53.82,0,.37-.19.67-.57.89-.38.22-.89.33-1.53.33-1.29,0-2.42-.38-3.38-1.14l-1.33,1.85c.61.49,1.32.87,2.14,1.14.83.27,1.69.4,2.58.4s1.7-.14,2.4-.43c.69-.28,1.23-.69,1.62-1.21.38-.52.57-1.13.57-1.81,0-.99-.36-1.76-1.09-2.33Z"/>
      <path class="cls-1" d="M27.37,143.66v-2.35h5.53v-2.05h-5.53v-2.21h5.84v-2.13h-8.31v10.89h8.48v-2.15h-6.01Z"/>
      <path class="cls-1" d="M42.02,142c.79-.25,1.4-.67,1.83-1.26s.65-1.3.65-2.13c0-.73-.16-1.37-.49-1.93-.32-.56-.77-1-1.37-1.3-.59-.31-1.28-.46-2.07-.46h-5.31v10.89h2.56v-3.59h1.48l2.77,3.59h3.03l-3.08-3.81ZM41.54,139.77c-.29.26-.71.39-1.26.39h-2.48v-3.06h2.48c.54,0,.95.13,1.25.4.3.27.44.65.44,1.14s-.14.86-.43,1.13Z"/>
      <path class="cls-1" d="M53.88,134.92l-1.44,3.7-1.58,4.24-1.54-4.24-1.46-3.7h-2.82l4.48,10.89h2.7l4.48-10.89h-2.82Z"/>
      <path class="cls-1" d="M57.81,134.92v10.89h2.55v-10.89h-2.55Z"/>
      <path class="cls-1" d="M70.74,142.7c-.35.35-.77.62-1.24.81-.48.19-.98.28-1.5.28-.65,0-1.23-.14-1.73-.43-.51-.28-.9-.69-1.17-1.2-.28-.52-.41-1.12-.41-1.79s.13-1.28.41-1.8c.27-.51.66-.92,1.17-1.2.5-.29,1.08-.43,1.73-.43.98,0,1.81.33,2.51,1l1.57-1.58c-1.15-1.13-2.53-1.69-4.14-1.69-1.13,0-2.14.23-3.02.71-.88.47-1.57,1.14-2.06,2-.5.87-.74,1.86-.74,2.99s.24,2.11.72,2.97c.48.86,1.17,1.53,2.06,2.01.88.47,1.91.71,3.09.71,1.66,0,3.07-.56,4.25-1.69l-1.5-1.67Z"/>
      <path class="cls-1" d="M73.7,134.92v10.89h2.55v-10.89h-2.55Z"/>
      <path class="cls-1" d="M89.02,137.36c-.48-.86-1.16-1.53-2.05-2-.89-.47-1.92-.71-3.09-.71s-2.2.24-3.09.71c-.89.47-1.57,1.14-2.06,2-.48.86-.72,1.86-.72,3.01s.24,2.14.72,3c.49.86,1.17,1.53,2.06,2,.89.47,1.92.71,3.09.71s2.2-.24,3.09-.71c.89-.47,1.57-1.14,2.05-2,.49-.86.73-1.86.73-3s-.24-2.15-.73-3.01ZM86.78,142.17c-.27.52-.66.92-1.16,1.21-.51.28-1.09.43-1.74.43s-1.23-.15-1.73-.43c-.5-.29-.88-.69-1.16-1.21-.27-.52-.41-1.12-.41-1.8s.14-1.29.41-1.81c.28-.52.66-.92,1.16-1.21.5-.28,1.08-.43,1.73-.43s1.23.15,1.74.43c.5.29.89.69,1.16,1.21.28.52.42,1.12.42,1.81s-.14,1.28-.42,1.8Z"/>
      <path class="cls-1" d="M99.03,140.28c-.73-.57-1.83-.93-3.3-1.1-.77-.09-1.32-.23-1.65-.42-.32-.19-.49-.45-.49-.79s.19-.64.57-.84c.38-.21.89-.31,1.52-.31,1.03,0,1.97.29,2.82.88l1.2-1.79c-.56-.39-1.19-.7-1.91-.92-.72-.21-1.46-.32-2.22-.32-.88,0-1.66.14-2.33.42-.68.28-1.2.67-1.58,1.18-.37.51-.56,1.1-.56,1.76,0,.99.35,1.74,1.04,2.27.69.53,1.77.88,3.26,1.05.77.08,1.33.22,1.68.42.35.19.53.47.53.82,0,.37-.19.67-.57.89-.38.22-.89.33-1.53.33-1.29,0-2.42-.38-3.38-1.14l-1.32,1.85c.6.49,1.31.87,2.14,1.14.82.27,1.68.4,2.57.4s1.71-.14,2.4-.43c.7-.28,1.24-.69,1.62-1.21s.58-1.13.58-1.81c0-.99-.37-1.76-1.09-2.33Z"/>
    </g>
    <g>
      <path class="cls-1" d="M100.35,0h-20.01c-.35,0-.63.28-.63.63v47.56c0,.35-.28.63-.63.63h-5.64c-.35,0-.63-.28-.63-.63v-23.36c0-.35-.28-.63-.63-.63h-20.01c-.35,0-.63.28-.63.63v23.36c0,.35-.28.63-.63.63h-6c-.35,0-.63-.28-.63-.63v-14.14c0-.35-.28-.63-.63-.63h-20.01c-.35,0-.63.28-.63.63v19.91c0,.35.28.63.63.63h76.73c.35,0,.63-.28.63-.63v-4.7h0V.63c0-.35-.28-.63-.63-.63Z"/>
      <path class="cls-1" d="M72.42,0h-18.27c-.39,0-.58.47-.31.74l5.38,5.44c.4.4.41,1.06,0,1.45-6.78,6.66-20.93,13.32-29.49,16.98-.78.33-.38,1.49.44,1.31,20.78-4.69,31.9-10.66,35.07-12.54.41-.24.93-.18,1.26.16l5.6,5.65c.27.28.74.08.74-.31V.44c0-.24-.19-.44-.44-.44Z"/>
    </g>
  </g>
</svg>