<?xml version="1.0" encoding="UTF-8"?>
<svg id="Capa_2" data-name="Capa 2" xmlns="http://www.w3.org/2000/svg" viewBox="0 0 99.09 131.96">
  <defs>
    <style>
      .cls-1 {
        fill: #fff;
      }
    </style>
  </defs>
  <g id="Capa_1-2" data-name="Capa 1">
    <g>
      <path class="cls-1" d="M97.96,68.32c-7.95,8.28-15.04,18.57-23.02,26.66-3.94,4-7.05,5.83-12.83,6.29-10.82.85-22.72-.63-33.7-.05-.45.02-.88.21-1.21.51l-4.78,4.36c-.71.65-1.8.63-2.48-.04L.43,86.94c-.47-.46-.56-1.19-.22-1.75l.07-.12c.08-.14.19-.26.32-.36,11.78-9.36,17.09-22.6,34.68-20.53,2.62.31,5.16,1.85,7.7,2.13,6.33.7,13.84-.63,20.22-.02,3.21.29,6.23,1.74,6.77,5.24,2.04,13.28-18.11,4.85-21.29,9.21-3.92,5.34,11.55,4.34,13.98,4.14,4.78-.37,9.88-2.58,11.83-7.28.68-1.63.63-3.55,1.51-5.04,1.06-1.79,9.78-11.52,11.53-13.03.9-.78,2.47-1.65,3.63-1.85,6.38-1.06,9.86,5.26,6.8,10.64Z"/>
      <path class="cls-1" d="M79.97,24.14l-2.2-5.51c3.15-4.25,4.87-6.78-.1-10.48-4.17-3.09-5.26-.02-9,1.73l-5.49-2.52c-.65-2.97-.03-6.45-3.85-7.08-7.09-1.19-7.33,1.47-8.56,7.48l-5.6,2.15c-3.93-3.8-7.28-4.4-10.64.44-3.26,4.69,2.19,6.81,1.95,8.48l-2.3,5.49c-5.91.64-8.31,1.9-7.26,8.38.63,3.86,4.57,2.81,7.51,3.68l2.1,5.63c-3.9,4.62-4.36,7.59,1,11.19,3.94,2.66,5.84-2.52,8.61-2.09l5.24,2.17c-.17,6.29,2.37,8.15,8.52,7.01,3.63-.68,2.53-6.58,3.33-7.15,2.69-.26,4.41-2.98,6.98-1.51,1.51.86,2.45,2.95,4.88,2.57,1.18-.19,4.97-3.85,5.44-4.97,1.49-3.51-3.34-5.23-2.65-8.04.09-.36,1.84-4.67,2.05-4.82,1.59-1.07,6.42.72,7.44-3.75,2.15-9.42-5.54-6.62-7.4-8.48ZM50.63,38.46c-11.05-8.52,3.04-25.62,13.73-15.64,9.03,8.42-2.82,24.05-13.73,15.64Z"/>
    </g>
    <g>
      <path class="cls-1" d="M14.28,126.16c-.73-.57-1.83-.93-3.3-1.1-.77-.09-1.32-.23-1.64-.42-.33-.19-.49-.45-.49-.79s.19-.64.57-.84c.37-.21.88-.31,1.51-.31,1.03,0,1.97.29,2.82.88l1.2-1.79c-.55-.39-1.19-.7-1.91-.92-.72-.21-1.46-.32-2.22-.32-.88,0-1.66.14-2.33.42-.68.28-1.2.67-1.57,1.18-.38.51-.56,1.1-.56,1.76,0,.99.34,1.74,1.03,2.27.69.53,1.78.88,3.26,1.05.77.08,1.33.22,1.68.42.36.19.53.47.53.82,0,.37-.19.67-.56.89-.38.22-.89.33-1.54.33-1.28,0-2.41-.38-3.38-1.14l-1.32,1.85c.6.49,1.32.87,2.14,1.14.83.27,1.68.4,2.58.4s1.7-.14,2.39-.43c.7-.28,1.24-.69,1.62-1.21.39-.52.58-1.13.58-1.81,0-.99-.36-1.76-1.09-2.33Z"/>
      <path class="cls-1" d="M19.48,129.54v-2.35h5.53v-2.05h-5.53v-2.21h5.84v-2.13h-8.32v10.89h8.49v-2.15h-6.01Z"/>
      <path class="cls-1" d="M34.13,127.88c.79-.25,1.4-.67,1.83-1.26s.64-1.3.64-2.13c0-.73-.16-1.37-.48-1.93s-.78-1-1.37-1.3c-.59-.31-1.28-.46-2.07-.46h-5.31v10.89h2.55v-3.59h1.48l2.77,3.59h3.04l-3.08-3.81ZM33.64,125.65c-.29.26-.71.39-1.26.39h-2.47v-3.06h2.47c.54,0,.96.13,1.26.4.29.27.44.65.44,1.14s-.14.86-.44,1.13Z"/>
      <path class="cls-1" d="M45.99,120.8l-1.45,3.7-1.57,4.24-1.54-4.24-1.47-3.7h-2.81l4.48,10.89h2.69l4.49-10.89h-2.82Z"/>
      <path class="cls-1" d="M49.91,120.8v10.89h2.55v-10.89h-2.55Z"/>
      <path class="cls-1" d="M62.85,128.58c-.35.35-.77.62-1.25.81-.47.19-.97.28-1.49.28-.66,0-1.23-.14-1.74-.43-.5-.28-.89-.69-1.16-1.2-.28-.52-.42-1.12-.42-1.79s.14-1.28.42-1.8c.27-.51.66-.92,1.16-1.2.51-.29,1.08-.43,1.74-.43.97,0,1.81.33,2.5,1l1.58-1.58c-1.16-1.13-2.54-1.69-4.14-1.69-1.14,0-2.14.23-3.02.71-.89.47-1.57,1.14-2.07,2-.49.87-.74,1.86-.74,2.99s.25,2.11.73,2.97c.48.86,1.17,1.53,2.05,2.01.89.47,1.92.71,3.09.71,1.66,0,3.08-.56,4.25-1.69l-1.49-1.67Z"/>
      <path class="cls-1" d="M65.81,120.8v10.89h2.55v-10.89h-2.55Z"/>
      <path class="cls-1" d="M81.13,123.24c-.48-.86-1.17-1.53-2.05-2-.89-.47-1.92-.71-3.09-.71s-2.21.24-3.09.71c-.89.47-1.58,1.14-2.06,2-.48.86-.72,1.86-.72,3.01s.24,2.14.72,3c.48.86,1.17,1.53,2.06,2,.88.47,1.91.71,3.09.71s2.2-.24,3.09-.71c.88-.47,1.57-1.14,2.05-2,.48-.86.72-1.86.72-3s-.24-2.15-.72-3.01ZM78.89,128.05c-.28.52-.67.92-1.17,1.21-.5.28-1.08.43-1.73.43s-1.23-.15-1.73-.43c-.5-.29-.89-.69-1.16-1.21-.28-.52-.41-1.12-.41-1.8s.13-1.29.41-1.81c.27-.52.66-.92,1.16-1.21.5-.28,1.07-.43,1.73-.43s1.23.15,1.73.43c.5.29.89.69,1.17,1.21.27.52.41,1.12.41,1.81s-.14,1.28-.41,1.8Z"/>
      <path class="cls-1" d="M91.13,126.16c-.72-.57-1.82-.93-3.3-1.1-.77-.09-1.31-.23-1.64-.42-.33-.19-.49-.45-.49-.79s.19-.64.57-.84c.38-.21.88-.31,1.52-.31,1.02,0,1.96.29,2.81.88l1.2-1.79c-.55-.39-1.18-.7-1.91-.92-.72-.21-1.46-.32-2.21-.32-.89,0-1.66.14-2.34.42-.67.28-1.2.67-1.57,1.18-.37.51-.56,1.1-.56,1.76,0,.99.34,1.74,1.03,2.27.69.53,1.78.88,3.26,1.05.77.08,1.33.22,1.69.42.35.19.53.47.53.82,0,.37-.19.67-.57.89-.38.22-.89.33-1.54.33-1.28,0-2.41-.38-3.37-1.14l-1.33,1.85c.6.49,1.32.87,2.14,1.14.83.27,1.69.4,2.58.4s1.7-.14,2.4-.43c.69-.28,1.23-.69,1.62-1.21.38-.52.57-1.13.57-1.81,0-.99-.36-1.76-1.09-2.33Z"/>
    </g>
  </g>
</svg>